<mxfile host="app.diagrams.net" modified="2022-03-30T18:50:02.596Z" agent="5.0 (Windows NT 10.0; Win64; x64) AppleWebKit/537.36 (KHTML, like Gecko) Chrome/99.0.4844.82 Safari/537.36" etag="nWo67jYhnTTawG1uncWI" version="17.3.0" type="github">
  <diagram id="zyjW8KVpsbDxsIq-05Kt" name="Page-1">
    <mxGraphModel dx="1950" dy="1235" grid="0" gridSize="10" guides="1" tooltips="1" connect="1" arrows="1" fold="1" page="0" pageScale="1" pageWidth="850" pageHeight="1100" math="0" shadow="0">
      <root>
        <mxCell id="0" />
        <mxCell id="1" parent="0" />
        <mxCell id="dGZekleK1e82G08Uoby1-1" value="Pet Store and vet clinic" style="rounded=0;whiteSpace=wrap;html=1;" parent="1" vertex="1">
          <mxGeometry x="107" y="32" width="404" height="25" as="geometry" />
        </mxCell>
        <mxCell id="dGZekleK1e82G08Uoby1-4" value="hv" style="rounded=0;whiteSpace=wrap;html=1;" parent="1" vertex="1">
          <mxGeometry x="67" y="-302" width="552" height="917" as="geometry" />
        </mxCell>
        <mxCell id="dGZekleK1e82G08Uoby1-5" value="Admin" style="shape=umlActor;verticalLabelPosition=bottom;verticalAlign=top;html=1;" parent="1" vertex="1">
          <mxGeometry y="419" width="30" height="60" as="geometry" />
        </mxCell>
        <mxCell id="dGZekleK1e82G08Uoby1-6" value="Actor" style="shape=umlActor;verticalLabelPosition=bottom;verticalAlign=top;html=1;" parent="1" vertex="1">
          <mxGeometry x="647" y="299" width="30" height="60" as="geometry" />
        </mxCell>
        <mxCell id="dGZekleK1e82G08Uoby1-30" value="user" style="shape=umlActor;verticalLabelPosition=bottom;verticalAlign=top;html=1;" parent="1" vertex="1">
          <mxGeometry x="-16" y="-249" width="30" height="60" as="geometry" />
        </mxCell>
        <mxCell id="dGZekleK1e82G08Uoby1-33" value="Regestration" style="strokeWidth=2;html=1;shape=mxgraph.flowchart.start_1;whiteSpace=wrap;fontSize=13;" parent="1" vertex="1">
          <mxGeometry x="121" y="-265" width="148" height="53" as="geometry" />
        </mxCell>
        <mxCell id="dGZekleK1e82G08Uoby1-34" value="view pet store" style="strokeWidth=2;html=1;shape=mxgraph.flowchart.start_1;whiteSpace=wrap;fontSize=13;" parent="1" vertex="1">
          <mxGeometry x="127" y="-117" width="148" height="53" as="geometry" />
        </mxCell>
        <mxCell id="dGZekleK1e82G08Uoby1-35" value="Log in" style="strokeWidth=2;html=1;shape=mxgraph.flowchart.start_1;whiteSpace=wrap;fontSize=13;" parent="1" vertex="1">
          <mxGeometry x="121" y="-189" width="148" height="53" as="geometry" />
        </mxCell>
        <mxCell id="dGZekleK1e82G08Uoby1-37" value="create wish list" style="strokeWidth=2;html=1;shape=mxgraph.flowchart.start_1;whiteSpace=wrap;fontSize=13;" parent="1" vertex="1">
          <mxGeometry x="131" y="-42" width="148" height="53" as="geometry" />
        </mxCell>
        <mxCell id="dGZekleK1e82G08Uoby1-38" value="add item" style="strokeWidth=2;html=1;shape=mxgraph.flowchart.start_1;whiteSpace=wrap;fontSize=13;" parent="1" vertex="1">
          <mxGeometry x="379" y="-42" width="148" height="53" as="geometry" />
        </mxCell>
        <mxCell id="dGZekleK1e82G08Uoby1-43" value="maintain the system" style="strokeWidth=2;html=1;shape=mxgraph.flowchart.start_1;whiteSpace=wrap;fontSize=13;" parent="1" vertex="1">
          <mxGeometry x="124" y="524" width="148" height="53" as="geometry" />
        </mxCell>
        <mxCell id="dGZekleK1e82G08Uoby1-44" value="add offer price" style="strokeWidth=2;html=1;shape=mxgraph.flowchart.start_1;whiteSpace=wrap;fontSize=13;" parent="1" vertex="1">
          <mxGeometry x="124" y="438" width="148" height="53" as="geometry" />
        </mxCell>
        <mxCell id="dGZekleK1e82G08Uoby1-45" value="Manage inventory" style="strokeWidth=2;html=1;shape=mxgraph.flowchart.start_1;whiteSpace=wrap;fontSize=13;" parent="1" vertex="1">
          <mxGeometry x="127" y="359" width="148" height="53" as="geometry" />
        </mxCell>
        <mxCell id="dGZekleK1e82G08Uoby1-46" value="update item" style="strokeWidth=2;html=1;shape=mxgraph.flowchart.start_1;whiteSpace=wrap;fontSize=13;" parent="1" vertex="1">
          <mxGeometry x="279" y="119" width="148" height="53" as="geometry" />
        </mxCell>
        <mxCell id="dGZekleK1e82G08Uoby1-47" value="delete item" style="strokeWidth=2;html=1;shape=mxgraph.flowchart.start_1;whiteSpace=wrap;fontSize=13;" parent="1" vertex="1">
          <mxGeometry x="379" y="32" width="148" height="53" as="geometry" />
        </mxCell>
        <mxCell id="dGZekleK1e82G08Uoby1-48" value="make payment" style="strokeWidth=2;html=1;shape=mxgraph.flowchart.start_1;whiteSpace=wrap;fontSize=13;" parent="1" vertex="1">
          <mxGeometry x="124" y="202.5" width="148" height="53" as="geometry" />
        </mxCell>
        <mxCell id="dGZekleK1e82G08Uoby1-49" value="search pet" style="strokeWidth=2;html=1;shape=mxgraph.flowchart.start_1;whiteSpace=wrap;fontSize=13;" parent="1" vertex="1">
          <mxGeometry x="376" y="-117" width="148" height="53" as="geometry" />
        </mxCell>
        <mxCell id="dGZekleK1e82G08Uoby1-50" value="verify email and password" style="strokeWidth=2;html=1;shape=mxgraph.flowchart.start_1;whiteSpace=wrap;fontSize=13;" parent="1" vertex="1">
          <mxGeometry x="376" y="-189" width="148" height="53" as="geometry" />
        </mxCell>
        <mxCell id="dGZekleK1e82G08Uoby1-51" value="update information" style="strokeWidth=2;html=1;shape=mxgraph.flowchart.start_1;whiteSpace=wrap;fontSize=13;" parent="1" vertex="1">
          <mxGeometry x="372" y="-261" width="148" height="53" as="geometry" />
        </mxCell>
        <mxCell id="dGZekleK1e82G08Uoby1-52" value="Cash on delivery" style="strokeWidth=2;html=1;shape=mxgraph.flowchart.start_1;whiteSpace=wrap;fontSize=13;" parent="1" vertex="1">
          <mxGeometry x="335" y="246" width="141" height="49" as="geometry" />
        </mxCell>
        <mxCell id="dGZekleK1e82G08Uoby1-53" value="Card(Credit/Debit)" style="strokeWidth=2;html=1;shape=mxgraph.flowchart.start_1;whiteSpace=wrap;fontSize=13;" parent="1" vertex="1">
          <mxGeometry x="308" y="193" width="151" height="49" as="geometry" />
        </mxCell>
        <mxCell id="dGZekleK1e82G08Uoby1-54" value="add item" style="strokeWidth=2;html=1;shape=mxgraph.flowchart.start_1;whiteSpace=wrap;fontSize=13;" parent="1" vertex="1">
          <mxGeometry x="357" y="363.5" width="130" height="44" as="geometry" />
        </mxCell>
        <mxCell id="dGZekleK1e82G08Uoby1-56" value="delete item" style="strokeWidth=2;html=1;shape=mxgraph.flowchart.start_1;whiteSpace=wrap;fontSize=13;" parent="1" vertex="1">
          <mxGeometry x="344" y="427" width="130" height="44" as="geometry" />
        </mxCell>
        <mxCell id="dGZekleK1e82G08Uoby1-65" value="" style="endArrow=none;html=1;rounded=0;fontSize=13;entryX=0;entryY=0.5;entryDx=0;entryDy=0;entryPerimeter=0;" parent="1" target="dGZekleK1e82G08Uoby1-33" edge="1">
          <mxGeometry width="50" height="50" relative="1" as="geometry">
            <mxPoint x="12" y="-189" as="sourcePoint" />
            <mxPoint x="62" y="-239" as="targetPoint" />
          </mxGeometry>
        </mxCell>
        <mxCell id="dGZekleK1e82G08Uoby1-66" value="" style="endArrow=none;html=1;rounded=0;fontSize=13;" parent="1" edge="1">
          <mxGeometry width="50" height="50" relative="1" as="geometry">
            <mxPoint x="12" y="-189" as="sourcePoint" />
            <mxPoint x="121" y="-162" as="targetPoint" />
          </mxGeometry>
        </mxCell>
        <mxCell id="dGZekleK1e82G08Uoby1-67" value="" style="endArrow=none;html=1;rounded=0;fontSize=13;entryX=0;entryY=0.5;entryDx=0;entryDy=0;entryPerimeter=0;" parent="1" target="dGZekleK1e82G08Uoby1-34" edge="1">
          <mxGeometry width="50" height="50" relative="1" as="geometry">
            <mxPoint x="14" y="-188" as="sourcePoint" />
            <mxPoint x="141" y="-218.5" as="targetPoint" />
            <Array as="points" />
          </mxGeometry>
        </mxCell>
        <mxCell id="dGZekleK1e82G08Uoby1-68" value="" style="endArrow=none;html=1;rounded=0;fontSize=13;entryX=0;entryY=0.5;entryDx=0;entryDy=0;entryPerimeter=0;" parent="1" target="dGZekleK1e82G08Uoby1-37" edge="1">
          <mxGeometry width="50" height="50" relative="1" as="geometry">
            <mxPoint x="15" y="-189" as="sourcePoint" />
            <mxPoint x="151" y="-208.5" as="targetPoint" />
          </mxGeometry>
        </mxCell>
        <mxCell id="dGZekleK1e82G08Uoby1-69" value="" style="endArrow=none;html=1;rounded=0;fontSize=13;entryX=0;entryY=0.5;entryDx=0;entryDy=0;entryPerimeter=0;" parent="1" target="dGZekleK1e82G08Uoby1-48" edge="1">
          <mxGeometry width="50" height="50" relative="1" as="geometry">
            <mxPoint x="14" y="-187" as="sourcePoint" />
            <mxPoint x="161" y="-198.5" as="targetPoint" />
          </mxGeometry>
        </mxCell>
        <mxCell id="dGZekleK1e82G08Uoby1-71" value="" style="endArrow=none;html=1;rounded=0;fontSize=13;entryX=0;entryY=0.5;entryDx=0;entryDy=0;entryPerimeter=0;" parent="1" target="dGZekleK1e82G08Uoby1-45" edge="1">
          <mxGeometry width="50" height="50" relative="1" as="geometry">
            <mxPoint x="30" y="479" as="sourcePoint" />
            <mxPoint x="80" y="429" as="targetPoint" />
          </mxGeometry>
        </mxCell>
        <mxCell id="dGZekleK1e82G08Uoby1-72" value="" style="endArrow=none;html=1;rounded=0;fontSize=13;entryX=0;entryY=0.5;entryDx=0;entryDy=0;entryPerimeter=0;" parent="1" target="dGZekleK1e82G08Uoby1-44" edge="1">
          <mxGeometry width="50" height="50" relative="1" as="geometry">
            <mxPoint x="31" y="480" as="sourcePoint" />
            <mxPoint x="137" y="395.5" as="targetPoint" />
          </mxGeometry>
        </mxCell>
        <mxCell id="dGZekleK1e82G08Uoby1-73" value="" style="endArrow=none;html=1;rounded=0;fontSize=13;entryX=0;entryY=0.5;entryDx=0;entryDy=0;entryPerimeter=0;exitX=1;exitY=1;exitDx=0;exitDy=0;exitPerimeter=0;" parent="1" source="dGZekleK1e82G08Uoby1-5" target="dGZekleK1e82G08Uoby1-43" edge="1">
          <mxGeometry width="50" height="50" relative="1" as="geometry">
            <mxPoint x="50" y="499" as="sourcePoint" />
            <mxPoint x="147" y="405.5" as="targetPoint" />
          </mxGeometry>
        </mxCell>
        <mxCell id="dGZekleK1e82G08Uoby1-75" value="" style="endArrow=none;html=1;rounded=0;fontSize=13;entryX=0;entryY=1;entryDx=0;entryDy=0;entryPerimeter=0;exitX=0.661;exitY=0.964;exitDx=0;exitDy=0;exitPerimeter=0;" parent="1" source="dGZekleK1e82G08Uoby1-48" target="dGZekleK1e82G08Uoby1-6" edge="1">
          <mxGeometry width="50" height="50" relative="1" as="geometry">
            <mxPoint x="300" y="453" as="sourcePoint" />
            <mxPoint x="350" y="403" as="targetPoint" />
            <Array as="points">
              <mxPoint x="424" y="326" />
            </Array>
          </mxGeometry>
        </mxCell>
        <mxCell id="dGZekleK1e82G08Uoby1-76" value="" style="endArrow=none;dashed=1;html=1;rounded=0;fontSize=13;exitX=1;exitY=0.5;exitDx=0;exitDy=0;exitPerimeter=0;entryX=0.009;entryY=0.366;entryDx=0;entryDy=0;entryPerimeter=0;" parent="1" source="dGZekleK1e82G08Uoby1-33" target="dGZekleK1e82G08Uoby1-51" edge="1">
          <mxGeometry width="50" height="50" relative="1" as="geometry">
            <mxPoint x="269" y="-199" as="sourcePoint" />
            <mxPoint x="319" y="-249" as="targetPoint" />
          </mxGeometry>
        </mxCell>
        <mxCell id="dGZekleK1e82G08Uoby1-77" value="" style="endArrow=none;dashed=1;html=1;rounded=0;fontSize=13;exitX=1;exitY=0.5;exitDx=0;exitDy=0;exitPerimeter=0;entryX=0;entryY=0.5;entryDx=0;entryDy=0;entryPerimeter=0;" parent="1" source="dGZekleK1e82G08Uoby1-35" target="dGZekleK1e82G08Uoby1-50" edge="1">
          <mxGeometry width="50" height="50" relative="1" as="geometry">
            <mxPoint x="279" y="-189" as="sourcePoint" />
            <mxPoint x="333" y="-162" as="targetPoint" />
          </mxGeometry>
        </mxCell>
        <mxCell id="dGZekleK1e82G08Uoby1-78" value="" style="endArrow=none;dashed=1;html=1;rounded=0;fontSize=13;exitX=1;exitY=0.5;exitDx=0;exitDy=0;exitPerimeter=0;entryX=0;entryY=0.5;entryDx=0;entryDy=0;entryPerimeter=0;" parent="1" source="dGZekleK1e82G08Uoby1-34" target="dGZekleK1e82G08Uoby1-49" edge="1">
          <mxGeometry width="50" height="50" relative="1" as="geometry">
            <mxPoint x="289" y="-179" as="sourcePoint" />
            <mxPoint x="339" y="-229" as="targetPoint" />
          </mxGeometry>
        </mxCell>
        <mxCell id="dGZekleK1e82G08Uoby1-79" value="" style="endArrow=none;dashed=1;html=1;rounded=0;fontSize=13;exitX=1;exitY=0.5;exitDx=0;exitDy=0;exitPerimeter=0;" parent="1" source="dGZekleK1e82G08Uoby1-37" target="dGZekleK1e82G08Uoby1-38" edge="1">
          <mxGeometry width="50" height="50" relative="1" as="geometry">
            <mxPoint x="299" y="-169" as="sourcePoint" />
            <mxPoint x="349" y="-219" as="targetPoint" />
          </mxGeometry>
        </mxCell>
        <mxCell id="dGZekleK1e82G08Uoby1-80" value="" style="endArrow=none;dashed=1;html=1;rounded=0;fontSize=13;exitX=1;exitY=0.5;exitDx=0;exitDy=0;exitPerimeter=0;entryX=0;entryY=0.5;entryDx=0;entryDy=0;entryPerimeter=0;" parent="1" source="dGZekleK1e82G08Uoby1-37" target="dGZekleK1e82G08Uoby1-47" edge="1">
          <mxGeometry width="50" height="50" relative="1" as="geometry">
            <mxPoint x="309" y="-159" as="sourcePoint" />
            <mxPoint x="359" y="-209" as="targetPoint" />
          </mxGeometry>
        </mxCell>
        <mxCell id="dGZekleK1e82G08Uoby1-81" value="" style="endArrow=none;dashed=1;html=1;rounded=0;fontSize=13;entryX=0;entryY=0.5;entryDx=0;entryDy=0;entryPerimeter=0;" parent="1" target="dGZekleK1e82G08Uoby1-46" edge="1">
          <mxGeometry width="50" height="50" relative="1" as="geometry">
            <mxPoint x="275" y="-1" as="sourcePoint" />
            <mxPoint x="369" y="-199" as="targetPoint" />
          </mxGeometry>
        </mxCell>
        <mxCell id="dGZekleK1e82G08Uoby1-84" value="" style="endArrow=classic;html=1;rounded=0;fontSize=13;entryX=1;entryY=0.5;entryDx=0;entryDy=0;entryPerimeter=0;exitX=0;exitY=0.5;exitDx=0;exitDy=0;exitPerimeter=0;" parent="1" source="dGZekleK1e82G08Uoby1-53" target="dGZekleK1e82G08Uoby1-48" edge="1">
          <mxGeometry width="50" height="50" relative="1" as="geometry">
            <mxPoint x="300" y="120" as="sourcePoint" />
            <mxPoint x="350" y="70" as="targetPoint" />
          </mxGeometry>
        </mxCell>
        <mxCell id="dGZekleK1e82G08Uoby1-85" value="" style="endArrow=classic;html=1;rounded=0;fontSize=13;exitX=0;exitY=0.5;exitDx=0;exitDy=0;exitPerimeter=0;entryX=1;entryY=0.5;entryDx=0;entryDy=0;entryPerimeter=0;" parent="1" source="dGZekleK1e82G08Uoby1-52" target="dGZekleK1e82G08Uoby1-48" edge="1">
          <mxGeometry width="50" height="50" relative="1" as="geometry">
            <mxPoint x="344" y="227.5" as="sourcePoint" />
            <mxPoint x="282" y="239" as="targetPoint" />
          </mxGeometry>
        </mxCell>
        <mxCell id="dGZekleK1e82G08Uoby1-86" value="&amp;lt;&amp;lt;include&amp;gt;&amp;gt;" style="text;html=1;strokeColor=none;fillColor=none;align=center;verticalAlign=middle;whiteSpace=wrap;rounded=0;fontSize=13;" parent="1" vertex="1">
          <mxGeometry x="269" y="-265" width="104" height="30" as="geometry" />
        </mxCell>
        <mxCell id="dGZekleK1e82G08Uoby1-87" value="&amp;lt;&amp;lt;include&amp;gt;&amp;gt;" style="text;html=1;strokeColor=none;fillColor=none;align=center;verticalAlign=middle;whiteSpace=wrap;rounded=0;fontSize=13;" parent="1" vertex="1">
          <mxGeometry x="265" y="-189" width="104" height="30" as="geometry" />
        </mxCell>
        <mxCell id="dGZekleK1e82G08Uoby1-88" value="&amp;lt;&amp;lt;extend&amp;gt;&amp;gt;" style="text;html=1;strokeColor=none;fillColor=none;align=center;verticalAlign=middle;whiteSpace=wrap;rounded=0;fontSize=13;" parent="1" vertex="1">
          <mxGeometry x="272" y="-115" width="104" height="30" as="geometry" />
        </mxCell>
        <mxCell id="dGZekleK1e82G08Uoby1-89" value="&amp;lt;&amp;lt;extend&amp;gt;&amp;gt;" style="text;html=1;strokeColor=none;fillColor=none;align=center;verticalAlign=middle;whiteSpace=wrap;rounded=0;fontSize=13;" parent="1" vertex="1">
          <mxGeometry x="275" y="-39" width="104" height="30" as="geometry" />
        </mxCell>
        <mxCell id="dGZekleK1e82G08Uoby1-90" value="&amp;lt;&amp;lt;extend&amp;gt;&amp;gt;" style="text;html=1;strokeColor=none;fillColor=none;align=center;verticalAlign=middle;whiteSpace=wrap;rounded=0;fontSize=13;" parent="1" vertex="1">
          <mxGeometry x="269" y="32" width="104" height="30" as="geometry" />
        </mxCell>
        <mxCell id="dGZekleK1e82G08Uoby1-91" value="&amp;lt;&amp;lt;extend&amp;gt;&amp;gt;" style="text;html=1;strokeColor=none;fillColor=none;align=center;verticalAlign=middle;whiteSpace=wrap;rounded=0;fontSize=13;" parent="1" vertex="1">
          <mxGeometry x="185" y="53" width="104" height="30" as="geometry" />
        </mxCell>
        <mxCell id="dGZekleK1e82G08Uoby1-92" value="" style="endArrow=none;dashed=1;html=1;rounded=0;fontSize=13;exitX=1;exitY=0.5;exitDx=0;exitDy=0;exitPerimeter=0;entryX=0;entryY=0.5;entryDx=0;entryDy=0;entryPerimeter=0;" parent="1" source="dGZekleK1e82G08Uoby1-45" target="dGZekleK1e82G08Uoby1-54" edge="1">
          <mxGeometry width="50" height="50" relative="1" as="geometry">
            <mxPoint x="300" y="453" as="sourcePoint" />
            <mxPoint x="350" y="403" as="targetPoint" />
          </mxGeometry>
        </mxCell>
        <mxCell id="dGZekleK1e82G08Uoby1-93" value="" style="endArrow=none;dashed=1;html=1;rounded=0;fontSize=13;exitX=0.916;exitY=0.864;exitDx=0;exitDy=0;exitPerimeter=0;entryX=0;entryY=0.5;entryDx=0;entryDy=0;entryPerimeter=0;" parent="1" source="dGZekleK1e82G08Uoby1-45" target="dGZekleK1e82G08Uoby1-56" edge="1">
          <mxGeometry width="50" height="50" relative="1" as="geometry">
            <mxPoint x="285" y="395.5" as="sourcePoint" />
            <mxPoint x="367" y="395.5" as="targetPoint" />
          </mxGeometry>
        </mxCell>
        <mxCell id="dGZekleK1e82G08Uoby1-95" value="" style="endArrow=classic;html=1;rounded=0;fontSize=13;entryX=0;entryY=1;entryDx=0;entryDy=0;" parent="1" target="dGZekleK1e82G08Uoby1-89" edge="1">
          <mxGeometry width="50" height="50" relative="1" as="geometry">
            <mxPoint x="275" y="-3" as="sourcePoint" />
            <mxPoint x="350" y="70" as="targetPoint" />
          </mxGeometry>
        </mxCell>
        <mxCell id="dGZekleK1e82G08Uoby1-99" value="" style="endArrow=classic;html=1;rounded=0;fontSize=13;entryX=0;entryY=0.75;entryDx=0;entryDy=0;" parent="1" target="dGZekleK1e82G08Uoby1-88" edge="1">
          <mxGeometry width="50" height="50" relative="1" as="geometry">
            <mxPoint x="281" y="-92" as="sourcePoint" />
            <mxPoint x="350" y="70" as="targetPoint" />
          </mxGeometry>
        </mxCell>
        <mxCell id="dGZekleK1e82G08Uoby1-100" value="" style="endArrow=classic;html=1;rounded=0;fontSize=13;entryX=0;entryY=0.75;entryDx=0;entryDy=0;" parent="1" target="dGZekleK1e82G08Uoby1-89" edge="1">
          <mxGeometry width="50" height="50" relative="1" as="geometry">
            <mxPoint x="283" y="-14" as="sourcePoint" />
            <mxPoint x="350" y="70" as="targetPoint" />
          </mxGeometry>
        </mxCell>
        <mxCell id="dGZekleK1e82G08Uoby1-101" value="" style="endArrow=classic;html=1;rounded=0;fontSize=13;entryX=1;entryY=0.75;entryDx=0;entryDy=0;" parent="1" target="dGZekleK1e82G08Uoby1-86" edge="1">
          <mxGeometry width="50" height="50" relative="1" as="geometry">
            <mxPoint x="371" y="-242" as="sourcePoint" />
            <mxPoint x="350" y="-263" as="targetPoint" />
          </mxGeometry>
        </mxCell>
        <mxCell id="dGZekleK1e82G08Uoby1-103" value="" style="endArrow=classic;html=1;rounded=0;fontSize=13;entryX=0;entryY=0.5;entryDx=0;entryDy=0;entryPerimeter=0;" parent="1" target="dGZekleK1e82G08Uoby1-50" edge="1">
          <mxGeometry width="50" height="50" relative="1" as="geometry">
            <mxPoint x="373" y="-162" as="sourcePoint" />
            <mxPoint x="350" y="-263" as="targetPoint" />
          </mxGeometry>
        </mxCell>
        <mxCell id="dGZekleK1e82G08Uoby1-104" value="" style="endArrow=classic;html=1;rounded=0;fontSize=13;" parent="1" edge="1">
          <mxGeometry width="50" height="50" relative="1" as="geometry">
            <mxPoint x="283" y="383" as="sourcePoint" />
            <mxPoint x="276" y="383" as="targetPoint" />
          </mxGeometry>
        </mxCell>
        <mxCell id="dGZekleK1e82G08Uoby1-107" value="" style="endArrow=classic;html=1;rounded=0;fontSize=13;" parent="1" edge="1">
          <mxGeometry width="50" height="50" relative="1" as="geometry">
            <mxPoint x="269" y="407" as="sourcePoint" />
            <mxPoint x="262" y="403" as="targetPoint" />
          </mxGeometry>
        </mxCell>
        <mxCell id="dGZekleK1e82G08Uoby1-109" value="&amp;lt;&amp;lt;extend&amp;gt;&amp;gt;" style="text;html=1;strokeColor=none;fillColor=none;align=center;verticalAlign=middle;whiteSpace=wrap;rounded=0;fontSize=13;" parent="1" vertex="1">
          <mxGeometry x="269" y="359" width="104" height="30" as="geometry" />
        </mxCell>
        <mxCell id="dGZekleK1e82G08Uoby1-110" value="&amp;lt;&amp;lt;extend&amp;gt;&amp;gt;" style="text;html=1;strokeColor=none;fillColor=none;align=center;verticalAlign=middle;whiteSpace=wrap;rounded=0;fontSize=13;" parent="1" vertex="1">
          <mxGeometry x="275" y="402" width="104" height="30" as="geometry" />
        </mxCell>
      </root>
    </mxGraphModel>
  </diagram>
</mxfile>
